<?xml version="1.0" encoding="UTF-8" standalone="no"?><!-- Generator: Gravit.io --><svg xmlns="http://www.w3.org/2000/svg" xmlns:xlink="http://www.w3.org/1999/xlink" style="isolation:isolate" viewBox="0 0 64 64" width="64pt" height="64pt"><defs><clipPath id="_clipPath_oMCIZ44qnyqkWQQBfvKLAzOQZn979CQ7"><rect width="64" height="64"/></clipPath></defs><g clip-path="url(#_clipPath_oMCIZ44qnyqkWQQBfvKLAzOQZn979CQ7)"><circle vector-effect="non-scaling-stroke" cx="898.9322916666739" cy="462.2803557902028" r="18.719644209797252" fill="rgb(164,201,255)"/><g opacity="0.5"><path d=" M 922.005 472 C 922.047 471.352 922.068 470.696 922.068 470.035 C 922.068 457.018 913.889 446.45 903.814 446.45 C 893.74 446.45 885.561 457.018 885.561 470.035 C 885.561 470.696 885.582 471.352 885.623 472 L 922.005 472 Z " fill-rule="evenodd" fill="rgb(255,255,255)"/></g><g opacity="0.5"><path d=" M 912.377 472 C 912.418 471.352 912.439 470.696 912.439 470.035 C 912.439 457.018 904.26 446.45 894.186 446.45 C 884.111 446.45 875.932 457.018 875.932 470.035 C 875.932 470.696 875.953 471.352 875.995 472 L 912.377 472 Z " fill-rule="evenodd" fill="rgb(255,255,255)"/></g><g opacity="0.5"><ellipse vector-effect="non-scaling-stroke" cx="898.9322916666739" cy="472.00000000000006" rx="23" ry="5.5" fill="rgb(255,255,255)"/></g><path d=" M 5.906 32 C 5.906 17.65 17.556 6 31.906 6 C 46.256 6 57.906 17.65 57.906 32 C 57.906 46.35 46.256 58 31.906 58 C 17.556 58 5.906 46.35 5.906 32 Z " fill="rgb(164,201,255)"/><path d=" M 50.335 13.694 C 55.019 18.382 57.906 24.856 57.906 32 C 57.906 36.942 56.524 41.564 54.126 45.5 L 13.421 45.5 C 13.363 44.6 13.334 43.689 13.334 42.77 C 13.334 24.691 24.694 10.013 38.687 10.013 C 42.888 10.013 46.852 11.336 50.335 13.694 Z " fill-rule="evenodd" fill="rgb(255,255,255)" fill-opacity="0.5"/><path d=" M 13.034 14.138 C 8.614 18.791 5.906 25.082 5.906 32 C 5.906 36.942 7.288 41.564 9.686 45.5 L 50.579 45.5 C 50.637 44.6 50.666 43.689 50.666 42.77 C 50.666 24.691 39.306 10.013 25.313 10.013 C 20.856 10.013 16.665 11.502 13.034 14.138 Z " fill-rule="evenodd" fill="rgb(255,255,255)" fill-opacity="0.5"/><path d=" M 56.437 40.618 C 54.859 45.116 52.076 49.048 48.464 52.015 C 43.664 52.732 37.982 53.139 31.906 53.139 C 25.83 53.139 20.148 52.732 15.348 52.015 C 11.736 49.048 8.953 45.116 7.375 40.618 C 13.218 38.932 22.043 37.861 31.906 37.861 C 41.769 37.861 50.594 38.932 56.437 40.618 Z " fill-rule="evenodd" fill="rgb(255,255,255)" fill-opacity="0.5"/></g></svg>